{
  "source": "C:\\Users\\Peter\\Desktop\\stuff\\MIUN\\quantitative_research\\video_compression\\videos\\BVI-HD\\BVI-HD_CDVL_videos\\ORIG\\DiverFishAndRock_1920x1080_30fps.mp4",
  "output": "C:\\Users\\Peter\\Desktop\\stuff\\MIUN\\quantitative_research\\video_compression\\compressed_videos\\BVI-HD\\av1\\4\\DiverFishAndRock_1920x1080_30fps_av1.mkv",
  "codec": "av1",
  "ok": "Input #0, mov,mp4,m4a,3gp,3g2,mj2, from 'C:\\Users\\Peter\\Desktop\\stuff\\MIUN\\quantitative_research\\video_compression\\videos\\BVI-HD\\BVI-HD_CDVL_videos\\ORIG\\DiverFishAndRock_1920x1080_30fps.mp4':\n  Metadata:\n    major_brand     : isom\n    minor_version   : 512\n    compatible_brands: isomiso2avc1mp41\n    encoder         : Lavf54.28.101\n  Duration: 00:00:05.00, start: 0.000000, bitrate: 228854 kb/s\n  Stream #0:0[0x1](und): Video: h264 (High 4:4:4 Predictive) (avc1 / 0x31637661), yuv420p(progressive), 1920x1080, 228851 kb/s, 30 fps, 30 tbr, 30 tbn (default)\n    Metadata:\n      handler_name    : VideoHandler\n      vendor_id       : [0][0][0][0]\n[out#0/matroska @ 0000021095c20b80] Codec AVOption b:a (set bitrate (in bits/s)) has not been used for any stream. The most likely reason is either wrong type (e.g. a video option with no video streams) or that it is a private option of some decoder which was not actually used for any stream.\nStream mapping:\n  Stream #0:0 -> #0:0 (h264 (native) -> av1 (libsvtav1))\nPress [q] to stop, [?] for help\nSvt[info]: -------------------------------------------\nSvt[info]: SVT [version]:\tSVT-AV1 Encoder Lib v3.1.0-19-g6ecfe8ec\nSvt[info]: SVT [build]  :\tGCC 15.2.0\t 64 bit\nSvt[info]: LIB Build date: Aug 17 2025 11:37:13\nSvt[info]: -------------------------------------------\nSvt[info]: Level of Parallelism: 5\nSvt[info]: Number of PPCS 93\nSvt[info]: [asm level on system : up to avx2]\nSvt[info]: [asm level selected : up to avx2]\nSvt[info]: -------------------------------------------\nSvt[info]: SVT [config]: main profile\ttier (auto)\tlevel (auto)\nSvt[info]: SVT [config]: width / height / fps numerator / fps denominator \t\t: 1920 / 1080 / 30 / 1\nSvt[info]: SVT [config]: bit-depth / color format \t\t\t\t\t: 8 / YUV420\nSvt[info]: SVT [config]: preset / tune / pred struct \t\t\t\t\t: 4 / PSNR / random access\nSvt[info]: SVT [config]: gop size / mini-gop size / key-frame type \t\t\t: 161 / 16 / key frame\nSvt[info]: SVT [config]: BRC mode / target bitrate (kbps)\t\t\t\t: VBR / 4000 \nSvt[info]: SVT [config]: AQ mode / Variance Boost \t\t\t\t\t: 2 / 0\nSvt[info]: SVT [config]: sharpness / luminance-based QP bias \t\t\t\t: 0 / 0\nSvt[info]: SVT [config]: QP scale compress strength \t\t\t\t\t: 0\nSvt[info]: -------------------------------------------\nOutput #0, matroska, to 'C:\\Users\\Peter\\Desktop\\stuff\\MIUN\\quantitative_research\\video_compression\\compressed_videos\\BVI-HD\\av1\\4\\DiverFishAndRock_1920x1080_30fps_av1.mkv':\n  Metadata:\n    major_brand     : isom\n    minor_version   : 512\n    compatible_brands: isomiso2avc1mp41\n    encoder         : Lavf62.3.100\n  Stream #0:0(und): Video: av1 (AV01 / 0x31305641), yuv420p(tv, progressive), 1920x1080, q=2-31, 4000 kb/s, 30 fps, 1k tbn (default)\n    Metadata:\n      encoder         : Lavc62.11.100 libsvtav1\n      handler_name    : VideoHandler\n      vendor_id       : [0][0][0][0]\n    Side data:\n      cpb: bitrate max/min/avg: 0/0/4000000 buffer size: 4000000 vbv_delay: N/A\nframe=    0 fps=0.0 q=0.0 size=       0KiB time=N/A bitrate=N/A speed=N/A elapsed=0:00:01.03    \nframe=    0 fps=0.0 q=0.0 size=       0KiB time=N/A bitrate=N/A speed=N/A elapsed=0:00:01.64    \nframe=    0 fps=0.0 q=0.0 size=       0KiB time=N/A bitrate=N/A speed=N/A elapsed=0:00:02.21    \nframe=    0 fps=0.0 q=0.0 size=       0KiB time=N/A bitrate=N/A speed=N/A elapsed=0:00:02.82    \nframe=    0 fps=0.0 q=0.0 size=       0KiB time=N/A bitrate=N/A speed=N/A elapsed=0:00:03.42    \nframe=    1 fps=0.3 q=11.0 size=       1KiB time=00:00:00.00 bitrate=N/A speed=   0x elapsed=0:00:03.94    \nframe=    1 fps=0.2 q=11.0 size=       1KiB time=00:00:00.00 bitrate=N/A speed=   0x elapsed=0:00:04.47    \nframe=    1 fps=0.2 q=11.0 size=       1KiB time=00:00:00.00 bitrate=N/A speed=   0x elapsed=0:00:05.03    \nframe=    2 fps=0.4 q=33.0 size=       1KiB time=00:00:00.03 bitrate= 171.1kbits/s speed=0.00599x elapsed=0:00:05.56    \nframe=    6 fps=1.0 q=33.0 size=       1KiB time=00:00:00.16 bitrate=  34.2kbits/s speed=0.0273x elapsed=0:00:06.11    \nframe=    8 fps=1.2 q=31.0 size=       1KiB time=00:00:00.23 bitrate=  24.4kbits/s speed=0.0351x elapsed=0:00:06.64    \nframe=    9 fps=1.2 q=25.0 size=       1KiB time=00:00:00.26 bitrate=  21.4kbits/s speed=0.0369x elapsed=0:00:07.23    \nframe=   11 fps=1.4 q=28.0 size=       1KiB time=00:00:00.33 bitrate=  17.1kbits/s speed=0.0425x elapsed=0:00:07.85    \nframe=   15 fps=1.8 q=28.0 size=       1KiB time=00:00:00.46 bitrate=  12.2kbits/s speed=0.0556x elapsed=0:00:08.39    \nframe=   18 fps=2.0 q=26.0 size=       1KiB time=00:00:00.56 bitrate=  10.1kbits/s speed=0.0633x elapsed=0:00:08.94    \nframe=   20 fps=2.1 q=26.0 size=       1KiB time=00:00:00.63 bitrate=   9.0kbits/s speed=0.0667x elapsed=0:00:09.50    \nframe=   23 fps=2.3 q=26.0 size=       1KiB time=00:00:00.73 bitrate=   7.8kbits/s speed=0.073x elapsed=0:00:10.04    \nframe=   26 fps=2.4 q=26.0 size=       1KiB time=00:00:00.83 bitrate=   6.8kbits/s speed=0.0779x elapsed=0:00:10.69    \nframe=   28 fps=2.5 q=26.0 size=       1KiB time=00:00:00.86 bitrate=   6.6kbits/s speed=0.0768x elapsed=0:00:11.28    \nframe=   31 fps=2.6 q=27.0 size=       1KiB time=00:00:00.96 bitrate=   5.9kbits/s speed=0.0815x elapsed=0:00:11.85    \nframe=   34 fps=2.7 q=26.0 size=       1KiB time=00:00:01.10 bitrate=   5.2kbits/s speed=0.0888x elapsed=0:00:12.38    \nframe=   36 fps=2.8 q=26.0 size=       1KiB time=00:00:01.16 bitrate=   4.9kbits/s speed=0.0904x elapsed=0:00:12.90    \nframe=   38 fps=2.8 q=26.0 size=       1KiB time=00:00:01.23 bitrate=   4.6kbits/s speed=0.0918x elapsed=0:00:13.43    \nframe=   40 fps=2.9 q=26.0 size=       1KiB time=00:00:01.30 bitrate=   4.4kbits/s speed=0.0931x elapsed=0:00:13.95    \nframe=   43 fps=3.0 q=27.0 size=       1KiB time=00:00:01.36 bitrate=   4.2kbits/s speed=0.0942x elapsed=0:00:14.51    \nframe=   44 fps=2.9 q=26.0 size=       1KiB time=00:00:01.43 bitrate=   4.0kbits/s speed=0.0951x elapsed=0:00:15.07    \nframe=   49 fps=3.1 q=11.0 size=       1KiB time=00:00:01.60 bitrate=   3.6kbits/s speed=0.102x elapsed=0:00:15.62    \nframe=   51 fps=3.2 q=28.0 size=       1KiB time=00:00:01.66 bitrate=   3.4kbits/s speed=0.103x elapsed=0:00:16.17    \nframe=   55 fps=3.3 q=28.0 size=       1KiB time=00:00:01.80 bitrate=   3.2kbits/s speed=0.108x elapsed=0:00:16.70    \nframe=   57 fps=3.3 q=23.0 size=       1KiB time=00:00:01.86 bitrate=   3.1kbits/s speed=0.108x elapsed=0:00:17.22    \nframe=   59 fps=3.3 q=28.0 size=       1KiB time=00:00:01.93 bitrate=   3.0kbits/s speed=0.109x elapsed=0:00:17.78    \nframe=   61 fps=3.3 q=25.0 size=       1KiB time=00:00:02.00 bitrate=   2.9kbits/s speed=0.109x elapsed=0:00:18.37    \nframe=   65 fps=3.4 q=8.0 size=       1KiB time=00:00:02.13 bitrate=   2.7kbits/s speed=0.113x elapsed=0:00:18.95    \nframe=   69 fps=3.5 q=27.0 size=       1KiB time=00:00:02.26 bitrate=   2.5kbits/s speed=0.116x elapsed=0:00:19.50    \nframe=   73 fps=3.6 q=23.0 size=       1KiB time=00:00:02.40 bitrate=   2.4kbits/s speed=0.12x elapsed=0:00:20.04    \nframe=   73 fps=3.5 q=23.0 size=       1KiB time=00:00:02.40 bitrate=   2.4kbits/s speed=0.117x elapsed=0:00:20.58    \nframe=   77 fps=3.6 q=25.0 size=       1KiB time=00:00:02.53 bitrate=   2.3kbits/s speed=0.12x elapsed=0:00:21.12    \nframe=   81 fps=3.7 q=11.0 size=       1KiB time=00:00:02.66 bitrate=   2.1kbits/s speed=0.123x elapsed=0:00:21.68    \nframe=   85 fps=3.8 q=26.0 size=       1KiB time=00:00:02.80 bitrate=   2.0kbits/s speed=0.126x elapsed=0:00:22.24    \nframe=   89 fps=3.9 q=22.0 size=       1KiB time=00:00:02.93 bitrate=   1.9kbits/s speed=0.129x elapsed=0:00:22.78    \nframe=   89 fps=3.8 q=22.0 size=       1KiB time=00:00:02.93 bitrate=   1.9kbits/s speed=0.126x elapsed=0:00:23.33    \nframe=   93 fps=3.9 q=25.0 size=       1KiB time=00:00:03.06 bitrate=   1.9kbits/s speed=0.128x elapsed=0:00:23.86    \nframe=   95 fps=3.9 q=27.0 size=       1KiB time=00:00:03.13 bitrate=   1.8kbits/s speed=0.128x elapsed=0:00:24.42    \nframe=  101 fps=4.0 q=27.0 size=       1KiB time=00:00:03.33 bitrate=   1.7kbits/s speed=0.134x elapsed=0:00:24.95    \nframe=  103 fps=4.0 q=26.0 size=       1KiB time=00:00:03.40 bitrate=   1.7kbits/s speed=0.133x elapsed=0:00:25.50    \nframe=  105 fps=4.0 q=23.0 size=       1KiB time=00:00:03.46 bitrate=   1.6kbits/s speed=0.133x elapsed=0:00:26.06    \nframe=  105 fps=3.9 q=23.0 size=       1KiB time=00:00:03.46 bitrate=   1.6kbits/s speed=0.13x elapsed=0:00:26.71    \nframe=  109 fps=4.0 q=25.0 size=       1KiB time=00:00:03.60 bitrate=   1.6kbits/s speed=0.132x elapsed=0:00:27.30    \nframe=  109 fps=3.9 q=25.0 size=       1KiB time=00:00:03.60 bitrate=   1.6kbits/s speed=0.129x elapsed=0:00:27.89    \nframe=  113 fps=4.0 q=14.0 size=       1KiB time=00:00:03.73 bitrate=   1.5kbits/s speed=0.131x elapsed=0:00:28.44    \nframe=  117 fps=4.0 q=28.0 size=       1KiB time=00:00:03.86 bitrate=   1.5kbits/s speed=0.133x elapsed=0:00:29.03    \nframe=  119 fps=4.0 q=28.0 size=       1KiB time=00:00:03.93 bitrate=   1.5kbits/s speed=0.133x elapsed=0:00:29.61    \nframe=  121 fps=4.0 q=23.0 size=       1KiB time=00:00:04.00 bitrate=   1.4kbits/s speed=0.133x elapsed=0:00:30.16    \nframe=  121 fps=3.9 q=23.0 size=       1KiB time=00:00:04.00 bitrate=   1.4kbits/s speed=0.13x elapsed=0:00:30.75    \nframe=  125 fps=4.0 q=28.0 size=       1KiB time=00:00:04.13 bitrate=   1.4kbits/s speed=0.132x elapsed=0:00:31.32    \nframe=  129 fps=4.0 q=13.0 size=       1KiB time=00:00:04.20 bitrate=   1.4kbits/s speed=0.132x elapsed=0:00:31.85    \nframe=  133 fps=4.1 q=32.0 size=       1KiB time=00:00:04.40 bitrate=   1.3kbits/s speed=0.136x elapsed=0:00:32.37    \nframe=  137 fps=4.2 q=28.0 size=       1KiB time=00:00:04.53 bitrate=   1.3kbits/s speed=0.138x elapsed=0:00:32.89    \nframe=  139 fps=4.2 q=32.0 size=       1KiB time=00:00:04.53 bitrate=   1.3kbits/s speed=0.136x elapsed=0:00:33.43    \nframe=  143 fps=4.2 q=32.0 size=       1KiB time=00:00:04.73 bitrate=   1.2kbits/s speed=0.139x elapsed=0:00:33.96    \n[out#0/matroska @ 0000021095c20b80] video:2370KiB audio:0KiB subtitle:0KiB other streams:0KiB global headers:0KiB muxing overhead: 0.060563%\nframe=  150 fps=4.4 q=32.0 Lsize=    2372KiB time=00:00:04.96 bitrate=3912.0kbits/s speed=0.146x elapsed=0:00:34.00    \n",
  "seconds": 34.51634764671326,
  "probe_out": {}
}